<mxfile host="app.diagrams.net" agent="Mozilla/5.0 (Windows NT 10.0; Win64; x64) AppleWebKit/537.36 (KHTML, like Gecko) Chrome/129.0.0.0 Safari/537.36" version="24.7.17">
  <diagram name="Страница — 1" id="lBQO3Guelt2beqhgQZlJ">
    <mxGraphModel dx="1877" dy="522" grid="1" gridSize="10" guides="1" tooltips="1" connect="1" arrows="1" fold="1" page="1" pageScale="1" pageWidth="827" pageHeight="1169" math="0" shadow="0">
      <root>
        <mxCell id="0" />
        <mxCell id="1" parent="0" />
        <mxCell id="VjyPyf59B6PFOXmsA0LT-3" value="" style="edgeStyle=orthogonalEdgeStyle;rounded=0;orthogonalLoop=1;jettySize=auto;html=1;fillColor=#0050ef;strokeColor=#3399FF;" edge="1" parent="1" source="VjyPyf59B6PFOXmsA0LT-1" target="VjyPyf59B6PFOXmsA0LT-2">
          <mxGeometry relative="1" as="geometry" />
        </mxCell>
        <mxCell id="VjyPyf59B6PFOXmsA0LT-57" style="rounded=0;orthogonalLoop=1;jettySize=auto;html=1;exitX=0.25;exitY=0;exitDx=0;exitDy=0;" edge="1" parent="1" source="VjyPyf59B6PFOXmsA0LT-1" target="VjyPyf59B6PFOXmsA0LT-58">
          <mxGeometry relative="1" as="geometry">
            <mxPoint x="600" y="60" as="targetPoint" />
          </mxGeometry>
        </mxCell>
        <mxCell id="VjyPyf59B6PFOXmsA0LT-59" style="rounded=0;orthogonalLoop=1;jettySize=auto;html=1;exitX=0.25;exitY=0;exitDx=0;exitDy=0;" edge="1" parent="1" source="VjyPyf59B6PFOXmsA0LT-1" target="VjyPyf59B6PFOXmsA0LT-60">
          <mxGeometry relative="1" as="geometry">
            <mxPoint x="720" y="60" as="targetPoint" />
          </mxGeometry>
        </mxCell>
        <mxCell id="VjyPyf59B6PFOXmsA0LT-61" style="rounded=0;orthogonalLoop=1;jettySize=auto;html=1;exitX=0.75;exitY=0;exitDx=0;exitDy=0;" edge="1" parent="1" source="VjyPyf59B6PFOXmsA0LT-1" target="VjyPyf59B6PFOXmsA0LT-62">
          <mxGeometry relative="1" as="geometry">
            <mxPoint x="830" y="70" as="targetPoint" />
          </mxGeometry>
        </mxCell>
        <mxCell id="VjyPyf59B6PFOXmsA0LT-63" style="rounded=0;orthogonalLoop=1;jettySize=auto;html=1;exitX=1;exitY=0.5;exitDx=0;exitDy=0;" edge="1" parent="1" source="VjyPyf59B6PFOXmsA0LT-1" target="VjyPyf59B6PFOXmsA0LT-64">
          <mxGeometry relative="1" as="geometry">
            <mxPoint x="800" y="190" as="targetPoint" />
          </mxGeometry>
        </mxCell>
        <mxCell id="VjyPyf59B6PFOXmsA0LT-1" value="depaetament" style="rounded=0;whiteSpace=wrap;html=1;strokeColor=#CC0000;strokeWidth=2;" vertex="1" parent="1">
          <mxGeometry x="590" y="160" width="120" height="60" as="geometry" />
        </mxCell>
        <mxCell id="VjyPyf59B6PFOXmsA0LT-5" value="" style="edgeStyle=orthogonalEdgeStyle;rounded=0;orthogonalLoop=1;jettySize=auto;html=1;" edge="1" parent="1" source="VjyPyf59B6PFOXmsA0LT-2" target="VjyPyf59B6PFOXmsA0LT-4">
          <mxGeometry relative="1" as="geometry" />
        </mxCell>
        <mxCell id="VjyPyf59B6PFOXmsA0LT-20" value="" style="edgeStyle=orthogonalEdgeStyle;rounded=0;orthogonalLoop=1;jettySize=auto;html=1;fillColor=#0050ef;strokeColor=#3399FF;" edge="1" parent="1" source="VjyPyf59B6PFOXmsA0LT-2" target="VjyPyf59B6PFOXmsA0LT-4">
          <mxGeometry relative="1" as="geometry" />
        </mxCell>
        <mxCell id="VjyPyf59B6PFOXmsA0LT-2" value="works_for" style="rhombus;whiteSpace=wrap;html=1;strokeColor=#33FFFF;rounded=0;strokeWidth=2;" vertex="1" parent="1">
          <mxGeometry x="380" y="150" width="110" height="80" as="geometry" />
        </mxCell>
        <mxCell id="VjyPyf59B6PFOXmsA0LT-19" value="" style="edgeStyle=orthogonalEdgeStyle;rounded=0;orthogonalLoop=1;jettySize=auto;html=1;strokeColor=#3399FF;fillColor=#0050ef;endArrow=none;endFill=0;startArrow=ERmandOne;startFill=0;exitX=0.75;exitY=1;exitDx=0;exitDy=0;" edge="1" parent="1" source="VjyPyf59B6PFOXmsA0LT-4" target="VjyPyf59B6PFOXmsA0LT-18">
          <mxGeometry relative="1" as="geometry" />
        </mxCell>
        <mxCell id="VjyPyf59B6PFOXmsA0LT-37" value="" style="rounded=0;orthogonalLoop=1;jettySize=auto;html=1;entryX=1;entryY=0.5;entryDx=0;entryDy=0;" edge="1" parent="1" source="VjyPyf59B6PFOXmsA0LT-4" target="VjyPyf59B6PFOXmsA0LT-38">
          <mxGeometry relative="1" as="geometry">
            <mxPoint x="85" y="190" as="targetPoint" />
          </mxGeometry>
        </mxCell>
        <mxCell id="VjyPyf59B6PFOXmsA0LT-39" style="rounded=0;orthogonalLoop=1;jettySize=auto;html=1;exitX=0.117;exitY=-0.007;exitDx=0;exitDy=0;exitPerimeter=0;" edge="1" parent="1" source="VjyPyf59B6PFOXmsA0LT-4" target="VjyPyf59B6PFOXmsA0LT-40">
          <mxGeometry relative="1" as="geometry">
            <mxPoint x="120" y="220" as="targetPoint" />
          </mxGeometry>
        </mxCell>
        <mxCell id="VjyPyf59B6PFOXmsA0LT-41" style="rounded=0;orthogonalLoop=1;jettySize=auto;html=1;entryX=1;entryY=0.5;entryDx=0;entryDy=0;" edge="1" parent="1" target="VjyPyf59B6PFOXmsA0LT-42">
          <mxGeometry relative="1" as="geometry">
            <mxPoint x="130" y="270" as="targetPoint" />
            <mxPoint x="180" y="190" as="sourcePoint" />
          </mxGeometry>
        </mxCell>
        <mxCell id="VjyPyf59B6PFOXmsA0LT-43" style="rounded=0;orthogonalLoop=1;jettySize=auto;html=1;exitX=0;exitY=0.5;exitDx=0;exitDy=0;" edge="1" parent="1" source="VjyPyf59B6PFOXmsA0LT-4" target="VjyPyf59B6PFOXmsA0LT-44">
          <mxGeometry relative="1" as="geometry">
            <mxPoint x="180" y="310" as="targetPoint" />
          </mxGeometry>
        </mxCell>
        <mxCell id="VjyPyf59B6PFOXmsA0LT-45" style="rounded=0;orthogonalLoop=1;jettySize=auto;html=1;exitX=0;exitY=0.25;exitDx=0;exitDy=0;entryX=0.5;entryY=1;entryDx=0;entryDy=0;" edge="1" parent="1" target="VjyPyf59B6PFOXmsA0LT-46">
          <mxGeometry relative="1" as="geometry">
            <mxPoint x="170" y="120" as="targetPoint" />
            <mxPoint x="218.75" y="189.5" as="sourcePoint" />
          </mxGeometry>
        </mxCell>
        <mxCell id="VjyPyf59B6PFOXmsA0LT-47" style="rounded=0;orthogonalLoop=1;jettySize=auto;html=1;exitX=0;exitY=0.5;exitDx=0;exitDy=0;" edge="1" parent="1" source="VjyPyf59B6PFOXmsA0LT-4" target="VjyPyf59B6PFOXmsA0LT-48">
          <mxGeometry relative="1" as="geometry">
            <mxPoint x="80" y="310" as="targetPoint" />
          </mxGeometry>
        </mxCell>
        <mxCell id="VjyPyf59B6PFOXmsA0LT-49" style="rounded=0;orthogonalLoop=1;jettySize=auto;html=1;exitX=0;exitY=1;exitDx=0;exitDy=0;" edge="1" parent="1" source="VjyPyf59B6PFOXmsA0LT-4" target="VjyPyf59B6PFOXmsA0LT-50">
          <mxGeometry relative="1" as="geometry">
            <mxPoint x="110" y="320" as="targetPoint" />
          </mxGeometry>
        </mxCell>
        <mxCell id="VjyPyf59B6PFOXmsA0LT-51" style="rounded=0;orthogonalLoop=1;jettySize=auto;html=1;exitX=0;exitY=1;exitDx=0;exitDy=0;" edge="1" parent="1" source="VjyPyf59B6PFOXmsA0LT-4" target="VjyPyf59B6PFOXmsA0LT-52">
          <mxGeometry relative="1" as="geometry">
            <mxPoint x="170" y="330" as="targetPoint" />
          </mxGeometry>
        </mxCell>
        <mxCell id="VjyPyf59B6PFOXmsA0LT-53" style="rounded=0;orthogonalLoop=1;jettySize=auto;html=1;exitX=0;exitY=1;exitDx=0;exitDy=0;" edge="1" parent="1" source="VjyPyf59B6PFOXmsA0LT-4" target="VjyPyf59B6PFOXmsA0LT-54">
          <mxGeometry relative="1" as="geometry">
            <mxPoint x="240" y="350" as="targetPoint" />
          </mxGeometry>
        </mxCell>
        <mxCell id="VjyPyf59B6PFOXmsA0LT-55" style="rounded=0;orthogonalLoop=1;jettySize=auto;html=1;exitX=0.25;exitY=1;exitDx=0;exitDy=0;" edge="1" parent="1" source="VjyPyf59B6PFOXmsA0LT-4" target="VjyPyf59B6PFOXmsA0LT-56">
          <mxGeometry relative="1" as="geometry">
            <mxPoint x="260" y="390" as="targetPoint" />
          </mxGeometry>
        </mxCell>
        <mxCell id="VjyPyf59B6PFOXmsA0LT-4" value="employee" style="whiteSpace=wrap;html=1;strokeColor=#CC0000;rounded=0;strokeWidth=2;" vertex="1" parent="1">
          <mxGeometry x="185" y="160" width="120" height="60" as="geometry" />
        </mxCell>
        <mxCell id="VjyPyf59B6PFOXmsA0LT-15" style="edgeStyle=orthogonalEdgeStyle;rounded=0;orthogonalLoop=1;jettySize=auto;html=1;exitX=1;exitY=0.5;exitDx=0;exitDy=0;entryX=0.75;entryY=0;entryDx=0;entryDy=0;fillColor=#1ba1e2;strokeColor=#3399FF;endArrow=ERzeroToOne;endFill=0;" edge="1" parent="1" source="VjyPyf59B6PFOXmsA0LT-8" target="VjyPyf59B6PFOXmsA0LT-4">
          <mxGeometry relative="1" as="geometry" />
        </mxCell>
        <mxCell id="VjyPyf59B6PFOXmsA0LT-16" style="edgeStyle=orthogonalEdgeStyle;rounded=0;orthogonalLoop=1;jettySize=auto;html=1;exitX=0;exitY=0.5;exitDx=0;exitDy=0;entryX=0.25;entryY=0;entryDx=0;entryDy=0;fillColor=#1ba1e2;strokeColor=#3399FF;endArrow=ERmany;endFill=0;" edge="1" parent="1" source="VjyPyf59B6PFOXmsA0LT-8" target="VjyPyf59B6PFOXmsA0LT-4">
          <mxGeometry relative="1" as="geometry">
            <Array as="points">
              <mxPoint x="240" y="50" />
              <mxPoint x="240" y="160" />
            </Array>
          </mxGeometry>
        </mxCell>
        <mxCell id="VjyPyf59B6PFOXmsA0LT-8" value="manages" style="rhombus;whiteSpace=wrap;html=1;strokeColor=#33FFFF;rounded=0;strokeWidth=2;" vertex="1" parent="1">
          <mxGeometry x="340" y="10" width="80" height="80" as="geometry" />
        </mxCell>
        <mxCell id="VjyPyf59B6PFOXmsA0LT-18" value="places" style="rhombus;whiteSpace=wrap;html=1;strokeColor=#33FFFF;rounded=0;strokeWidth=2;" vertex="1" parent="1">
          <mxGeometry x="322.5" y="310" width="115" height="80" as="geometry" />
        </mxCell>
        <mxCell id="VjyPyf59B6PFOXmsA0LT-24" value="" style="edgeStyle=orthogonalEdgeStyle;rounded=0;orthogonalLoop=1;jettySize=auto;html=1;strokeColor=#3399FF;startArrow=ERmany;startFill=0;endArrow=none;endFill=0;entryX=1;entryY=0.5;entryDx=0;entryDy=0;exitX=0;exitY=0.5;exitDx=0;exitDy=0;" edge="1" parent="1" source="VjyPyf59B6PFOXmsA0LT-22" target="VjyPyf59B6PFOXmsA0LT-18">
          <mxGeometry relative="1" as="geometry">
            <Array as="points">
              <mxPoint x="380" y="370" />
              <mxPoint x="380" y="370" />
            </Array>
          </mxGeometry>
        </mxCell>
        <mxCell id="VjyPyf59B6PFOXmsA0LT-27" value="" style="edgeStyle=orthogonalEdgeStyle;rounded=0;orthogonalLoop=1;jettySize=auto;html=1;startArrow=ERoneToMany;startFill=0;endArrow=none;endFill=0;strokeColor=#3399FF;exitX=0.75;exitY=1;exitDx=0;exitDy=0;" edge="1" parent="1" source="VjyPyf59B6PFOXmsA0LT-22" target="VjyPyf59B6PFOXmsA0LT-26">
          <mxGeometry relative="1" as="geometry" />
        </mxCell>
        <mxCell id="VjyPyf59B6PFOXmsA0LT-29" value="" style="edgeStyle=orthogonalEdgeStyle;rounded=0;orthogonalLoop=1;jettySize=auto;html=1;strokeColor=#3399FF;exitX=0.25;exitY=1;exitDx=0;exitDy=0;startArrow=ERzeroToMany;startFill=0;endArrow=none;endFill=0;" edge="1" parent="1" source="VjyPyf59B6PFOXmsA0LT-22" target="VjyPyf59B6PFOXmsA0LT-28">
          <mxGeometry relative="1" as="geometry" />
        </mxCell>
        <mxCell id="VjyPyf59B6PFOXmsA0LT-98" style="rounded=0;orthogonalLoop=1;jettySize=auto;html=1;exitX=1;exitY=0.5;exitDx=0;exitDy=0;" edge="1" parent="1" source="VjyPyf59B6PFOXmsA0LT-22" target="VjyPyf59B6PFOXmsA0LT-99">
          <mxGeometry relative="1" as="geometry">
            <mxPoint x="830" y="375" as="targetPoint" />
          </mxGeometry>
        </mxCell>
        <mxCell id="VjyPyf59B6PFOXmsA0LT-100" style="rounded=0;orthogonalLoop=1;jettySize=auto;html=1;exitX=1;exitY=0.5;exitDx=0;exitDy=0;" edge="1" parent="1" source="VjyPyf59B6PFOXmsA0LT-22" target="VjyPyf59B6PFOXmsA0LT-101">
          <mxGeometry relative="1" as="geometry">
            <mxPoint x="870" y="340" as="targetPoint" />
          </mxGeometry>
        </mxCell>
        <mxCell id="VjyPyf59B6PFOXmsA0LT-102" style="rounded=0;orthogonalLoop=1;jettySize=auto;html=1;exitX=1;exitY=0.5;exitDx=0;exitDy=0;" edge="1" parent="1" source="VjyPyf59B6PFOXmsA0LT-22" target="VjyPyf59B6PFOXmsA0LT-103">
          <mxGeometry relative="1" as="geometry">
            <mxPoint x="860" y="320" as="targetPoint" />
          </mxGeometry>
        </mxCell>
        <mxCell id="VjyPyf59B6PFOXmsA0LT-104" style="rounded=0;orthogonalLoop=1;jettySize=auto;html=1;exitX=1;exitY=0.25;exitDx=0;exitDy=0;" edge="1" parent="1" source="VjyPyf59B6PFOXmsA0LT-22" target="VjyPyf59B6PFOXmsA0LT-105">
          <mxGeometry relative="1" as="geometry">
            <mxPoint x="850" y="280" as="targetPoint" />
          </mxGeometry>
        </mxCell>
        <mxCell id="VjyPyf59B6PFOXmsA0LT-106" style="rounded=0;orthogonalLoop=1;jettySize=auto;html=1;exitX=1;exitY=0;exitDx=0;exitDy=0;entryX=0.5;entryY=1;entryDx=0;entryDy=0;" edge="1" parent="1" source="VjyPyf59B6PFOXmsA0LT-22" target="VjyPyf59B6PFOXmsA0LT-107">
          <mxGeometry relative="1" as="geometry">
            <mxPoint x="712" y="288" as="targetPoint" />
          </mxGeometry>
        </mxCell>
        <mxCell id="VjyPyf59B6PFOXmsA0LT-108" style="rounded=0;orthogonalLoop=1;jettySize=auto;html=1;exitX=0.75;exitY=0;exitDx=0;exitDy=0;" edge="1" parent="1" source="VjyPyf59B6PFOXmsA0LT-22" target="VjyPyf59B6PFOXmsA0LT-109">
          <mxGeometry relative="1" as="geometry">
            <mxPoint x="650" y="260" as="targetPoint" />
          </mxGeometry>
        </mxCell>
        <mxCell id="VjyPyf59B6PFOXmsA0LT-110" style="rounded=0;orthogonalLoop=1;jettySize=auto;html=1;exitX=0.25;exitY=0;exitDx=0;exitDy=0;entryX=0.5;entryY=1;entryDx=0;entryDy=0;" edge="1" parent="1" source="VjyPyf59B6PFOXmsA0LT-22" target="VjyPyf59B6PFOXmsA0LT-111">
          <mxGeometry relative="1" as="geometry">
            <mxPoint x="540" y="270" as="targetPoint" />
          </mxGeometry>
        </mxCell>
        <mxCell id="VjyPyf59B6PFOXmsA0LT-22" value="orders" style="whiteSpace=wrap;html=1;strokeColor=#CC0000;rounded=0;strokeWidth=2;" vertex="1" parent="1">
          <mxGeometry x="560" y="330" width="120" height="60" as="geometry" />
        </mxCell>
        <mxCell id="VjyPyf59B6PFOXmsA0LT-34" value="" style="edgeStyle=orthogonalEdgeStyle;rounded=0;orthogonalLoop=1;jettySize=auto;html=1;startArrow=ERmandOne;startFill=0;endArrow=none;endFill=0;strokeColor=#3399FF;" edge="1" parent="1" source="VjyPyf59B6PFOXmsA0LT-26" target="VjyPyf59B6PFOXmsA0LT-33">
          <mxGeometry relative="1" as="geometry" />
        </mxCell>
        <mxCell id="VjyPyf59B6PFOXmsA0LT-26" value="buys" style="rhombus;whiteSpace=wrap;html=1;strokeColor=#33FFFF;rounded=0;strokeWidth=2;" vertex="1" parent="1">
          <mxGeometry x="740" y="440" width="100" height="80" as="geometry" />
        </mxCell>
        <mxCell id="VjyPyf59B6PFOXmsA0LT-32" value="" style="edgeStyle=orthogonalEdgeStyle;rounded=0;orthogonalLoop=1;jettySize=auto;html=1;endArrow=ERmandOne;endFill=0;strokeColor=#3399FF;" edge="1" parent="1" source="VjyPyf59B6PFOXmsA0LT-28" target="VjyPyf59B6PFOXmsA0LT-31">
          <mxGeometry relative="1" as="geometry" />
        </mxCell>
        <mxCell id="VjyPyf59B6PFOXmsA0LT-28" value="sells" style="rhombus;whiteSpace=wrap;html=1;strokeColor=#33FFFF;rounded=0;strokeWidth=2;" vertex="1" parent="1">
          <mxGeometry x="400" y="440" width="110" height="80" as="geometry" />
        </mxCell>
        <mxCell id="VjyPyf59B6PFOXmsA0LT-81" style="rounded=0;orthogonalLoop=1;jettySize=auto;html=1;exitX=0.25;exitY=0;exitDx=0;exitDy=0;" edge="1" parent="1" source="VjyPyf59B6PFOXmsA0LT-31" target="VjyPyf59B6PFOXmsA0LT-82">
          <mxGeometry relative="1" as="geometry">
            <mxPoint x="370" y="760" as="targetPoint" />
          </mxGeometry>
        </mxCell>
        <mxCell id="VjyPyf59B6PFOXmsA0LT-83" style="rounded=0;orthogonalLoop=1;jettySize=auto;html=1;exitX=0;exitY=0;exitDx=0;exitDy=0;" edge="1" parent="1" source="VjyPyf59B6PFOXmsA0LT-31" target="VjyPyf59B6PFOXmsA0LT-84">
          <mxGeometry relative="1" as="geometry">
            <mxPoint x="300" y="630" as="targetPoint" />
          </mxGeometry>
        </mxCell>
        <mxCell id="VjyPyf59B6PFOXmsA0LT-85" style="rounded=0;orthogonalLoop=1;jettySize=auto;html=1;exitX=0;exitY=0.25;exitDx=0;exitDy=0;" edge="1" parent="1" source="VjyPyf59B6PFOXmsA0LT-31" target="VjyPyf59B6PFOXmsA0LT-86">
          <mxGeometry relative="1" as="geometry">
            <mxPoint x="350" y="720" as="targetPoint" />
          </mxGeometry>
        </mxCell>
        <mxCell id="VjyPyf59B6PFOXmsA0LT-87" style="rounded=0;orthogonalLoop=1;jettySize=auto;html=1;exitX=0;exitY=0.25;exitDx=0;exitDy=0;" edge="1" parent="1" source="VjyPyf59B6PFOXmsA0LT-31" target="VjyPyf59B6PFOXmsA0LT-89">
          <mxGeometry relative="1" as="geometry">
            <mxPoint x="240" y="670" as="targetPoint" />
            <mxPoint x="400" y="600" as="sourcePoint" />
          </mxGeometry>
        </mxCell>
        <mxCell id="VjyPyf59B6PFOXmsA0LT-90" style="rounded=0;orthogonalLoop=1;jettySize=auto;html=1;exitX=0;exitY=0.75;exitDx=0;exitDy=0;" edge="1" parent="1" source="VjyPyf59B6PFOXmsA0LT-31" target="VjyPyf59B6PFOXmsA0LT-91">
          <mxGeometry relative="1" as="geometry">
            <mxPoint x="300" y="700" as="targetPoint" />
          </mxGeometry>
        </mxCell>
        <mxCell id="VjyPyf59B6PFOXmsA0LT-92" style="rounded=0;orthogonalLoop=1;jettySize=auto;html=1;exitX=0;exitY=1;exitDx=0;exitDy=0;entryX=0.5;entryY=0;entryDx=0;entryDy=0;" edge="1" parent="1" source="VjyPyf59B6PFOXmsA0LT-31" target="VjyPyf59B6PFOXmsA0LT-93">
          <mxGeometry relative="1" as="geometry">
            <mxPoint x="360" y="730" as="targetPoint" />
          </mxGeometry>
        </mxCell>
        <mxCell id="VjyPyf59B6PFOXmsA0LT-94" style="rounded=0;orthogonalLoop=1;jettySize=auto;html=1;exitX=0.25;exitY=1;exitDx=0;exitDy=0;" edge="1" parent="1" source="VjyPyf59B6PFOXmsA0LT-31" target="VjyPyf59B6PFOXmsA0LT-95">
          <mxGeometry relative="1" as="geometry">
            <mxPoint x="426" y="750" as="targetPoint" />
          </mxGeometry>
        </mxCell>
        <mxCell id="VjyPyf59B6PFOXmsA0LT-96" style="rounded=0;orthogonalLoop=1;jettySize=auto;html=1;exitX=0.5;exitY=1;exitDx=0;exitDy=0;" edge="1" parent="1" source="VjyPyf59B6PFOXmsA0LT-31" target="VjyPyf59B6PFOXmsA0LT-97">
          <mxGeometry relative="1" as="geometry">
            <mxPoint x="500" y="770" as="targetPoint" />
          </mxGeometry>
        </mxCell>
        <mxCell id="VjyPyf59B6PFOXmsA0LT-31" value="product" style="whiteSpace=wrap;html=1;strokeColor=#CC0000;rounded=0;strokeWidth=2;" vertex="1" parent="1">
          <mxGeometry x="397.5" y="590" width="115" height="60" as="geometry" />
        </mxCell>
        <mxCell id="VjyPyf59B6PFOXmsA0LT-65" style="rounded=0;orthogonalLoop=1;jettySize=auto;html=1;exitX=1;exitY=0.75;exitDx=0;exitDy=0;" edge="1" parent="1" source="VjyPyf59B6PFOXmsA0LT-33" target="VjyPyf59B6PFOXmsA0LT-66">
          <mxGeometry relative="1" as="geometry">
            <mxPoint x="920" y="730" as="targetPoint" />
          </mxGeometry>
        </mxCell>
        <mxCell id="VjyPyf59B6PFOXmsA0LT-67" style="rounded=0;orthogonalLoop=1;jettySize=auto;html=1;exitX=0.75;exitY=1;exitDx=0;exitDy=0;" edge="1" parent="1" source="VjyPyf59B6PFOXmsA0LT-33" target="VjyPyf59B6PFOXmsA0LT-68">
          <mxGeometry relative="1" as="geometry">
            <mxPoint x="840" y="760" as="targetPoint" />
          </mxGeometry>
        </mxCell>
        <mxCell id="VjyPyf59B6PFOXmsA0LT-69" style="rounded=0;orthogonalLoop=1;jettySize=auto;html=1;exitX=0.75;exitY=1;exitDx=0;exitDy=0;" edge="1" parent="1" source="VjyPyf59B6PFOXmsA0LT-33" target="VjyPyf59B6PFOXmsA0LT-70">
          <mxGeometry relative="1" as="geometry">
            <mxPoint x="770" y="770" as="targetPoint" />
          </mxGeometry>
        </mxCell>
        <mxCell id="VjyPyf59B6PFOXmsA0LT-71" style="rounded=0;orthogonalLoop=1;jettySize=auto;html=1;exitX=0.25;exitY=1;exitDx=0;exitDy=0;" edge="1" parent="1" source="VjyPyf59B6PFOXmsA0LT-33" target="VjyPyf59B6PFOXmsA0LT-72">
          <mxGeometry relative="1" as="geometry">
            <mxPoint x="700" y="770" as="targetPoint" />
          </mxGeometry>
        </mxCell>
        <mxCell id="VjyPyf59B6PFOXmsA0LT-73" style="rounded=0;orthogonalLoop=1;jettySize=auto;html=1;exitX=0.25;exitY=1;exitDx=0;exitDy=0;" edge="1" parent="1" source="VjyPyf59B6PFOXmsA0LT-33" target="VjyPyf59B6PFOXmsA0LT-74">
          <mxGeometry relative="1" as="geometry">
            <mxPoint x="650" y="700" as="targetPoint" />
          </mxGeometry>
        </mxCell>
        <mxCell id="VjyPyf59B6PFOXmsA0LT-75" style="rounded=0;orthogonalLoop=1;jettySize=auto;html=1;exitX=0;exitY=0.75;exitDx=0;exitDy=0;" edge="1" parent="1" source="VjyPyf59B6PFOXmsA0LT-33" target="VjyPyf59B6PFOXmsA0LT-76">
          <mxGeometry relative="1" as="geometry">
            <mxPoint x="660" y="635" as="targetPoint" />
          </mxGeometry>
        </mxCell>
        <mxCell id="VjyPyf59B6PFOXmsA0LT-77" style="rounded=0;orthogonalLoop=1;jettySize=auto;html=1;exitX=0;exitY=0.5;exitDx=0;exitDy=0;" edge="1" parent="1" source="VjyPyf59B6PFOXmsA0LT-33" target="VjyPyf59B6PFOXmsA0LT-78">
          <mxGeometry relative="1" as="geometry">
            <mxPoint x="660" y="580" as="targetPoint" />
          </mxGeometry>
        </mxCell>
        <mxCell id="VjyPyf59B6PFOXmsA0LT-79" style="rounded=0;orthogonalLoop=1;jettySize=auto;html=1;exitX=0;exitY=0;exitDx=0;exitDy=0;" edge="1" parent="1" source="VjyPyf59B6PFOXmsA0LT-33" target="VjyPyf59B6PFOXmsA0LT-80">
          <mxGeometry relative="1" as="geometry">
            <mxPoint x="720" y="560" as="targetPoint" />
          </mxGeometry>
        </mxCell>
        <mxCell id="VjyPyf59B6PFOXmsA0LT-33" value="customers" style="whiteSpace=wrap;html=1;strokeColor=#CC0000;rounded=0;strokeWidth=2;" vertex="1" parent="1">
          <mxGeometry x="730" y="590" width="120" height="60" as="geometry" />
        </mxCell>
        <mxCell id="VjyPyf59B6PFOXmsA0LT-38" value="&lt;br&gt;employee_id" style="ellipse;whiteSpace=wrap;html=1;verticalAlign=middle;align=center;spacing=2;spacingBottom=0;" vertex="1" parent="1">
          <mxGeometry x="-10" y="40" width="100" height="50" as="geometry" />
        </mxCell>
        <mxCell id="VjyPyf59B6PFOXmsA0LT-40" value="user_name" style="ellipse;whiteSpace=wrap;html=1;" vertex="1" parent="1">
          <mxGeometry x="-50" y="90" width="100" height="50" as="geometry" />
        </mxCell>
        <mxCell id="VjyPyf59B6PFOXmsA0LT-42" value="&#xa;last_name&#xa;&#xa;" style="ellipse;whiteSpace=wrap;html=1;" vertex="1" parent="1">
          <mxGeometry x="-50" y="150" width="100" height="50" as="geometry" />
        </mxCell>
        <mxCell id="VjyPyf59B6PFOXmsA0LT-44" value="first_name" style="ellipse;whiteSpace=wrap;html=1;" vertex="1" parent="1">
          <mxGeometry x="-50" y="210" width="100" height="50" as="geometry" />
        </mxCell>
        <mxCell id="VjyPyf59B6PFOXmsA0LT-46" value="position" style="ellipse;whiteSpace=wrap;html=1;" vertex="1" parent="1">
          <mxGeometry x="90" y="10" width="102.5" height="50" as="geometry" />
        </mxCell>
        <mxCell id="VjyPyf59B6PFOXmsA0LT-48" value="emloyment_date" style="ellipse;whiteSpace=wrap;html=1;" vertex="1" parent="1">
          <mxGeometry x="-30" y="270" width="100" height="50" as="geometry" />
        </mxCell>
        <mxCell id="VjyPyf59B6PFOXmsA0LT-50" value="department_id" style="ellipse;whiteSpace=wrap;html=1;strokeColor=default;dashed=1;" vertex="1" parent="1">
          <mxGeometry y="330" width="100" height="50" as="geometry" />
        </mxCell>
        <mxCell id="VjyPyf59B6PFOXmsA0LT-52" value="manager_id" style="ellipse;whiteSpace=wrap;html=1;dashed=1;" vertex="1" parent="1">
          <mxGeometry x="50" y="380" width="100" height="50" as="geometry" />
        </mxCell>
        <mxCell id="VjyPyf59B6PFOXmsA0LT-54" value="rate" style="ellipse;whiteSpace=wrap;html=1;" vertex="1" parent="1">
          <mxGeometry x="140" y="410" width="100" height="50" as="geometry" />
        </mxCell>
        <mxCell id="VjyPyf59B6PFOXmsA0LT-56" value="bonus" style="ellipse;whiteSpace=wrap;html=1;dashed=1;" vertex="1" parent="1">
          <mxGeometry x="250" y="410" width="100" height="50" as="geometry" />
        </mxCell>
        <mxCell id="VjyPyf59B6PFOXmsA0LT-58" value="&#xa;department_id&#xa;&#xa;" style="ellipse;whiteSpace=wrap;html=1;" vertex="1" parent="1">
          <mxGeometry x="560" y="20" width="100" height="50" as="geometry" />
        </mxCell>
        <mxCell id="VjyPyf59B6PFOXmsA0LT-60" value="&#xa;department_name&#xa;&#xa;" style="ellipse;whiteSpace=wrap;html=1;" vertex="1" parent="1">
          <mxGeometry x="680" y="20" width="110" height="50" as="geometry" />
        </mxCell>
        <mxCell id="VjyPyf59B6PFOXmsA0LT-62" value="&lt;br&gt;city, street&lt;div&gt;&lt;br/&gt;&lt;/div&gt;" style="ellipse;whiteSpace=wrap;html=1;" vertex="1" parent="1">
          <mxGeometry x="790" y="40" width="100" height="50" as="geometry" />
        </mxCell>
        <mxCell id="VjyPyf59B6PFOXmsA0LT-64" value="&#xa;building_no&#xa;&#xa;" style="ellipse;whiteSpace=wrap;html=1;dashed=1;" vertex="1" parent="1">
          <mxGeometry x="800" y="165" width="100" height="50" as="geometry" />
        </mxCell>
        <mxCell id="VjyPyf59B6PFOXmsA0LT-66" value="&#xa;customer_id&#xa;&#xa;" style="ellipse;whiteSpace=wrap;html=1;" vertex="1" parent="1">
          <mxGeometry x="880" y="700" width="100" height="50" as="geometry" />
        </mxCell>
        <mxCell id="VjyPyf59B6PFOXmsA0LT-68" value="&#xa;first_name&#xa;&#xa;" style="ellipse;whiteSpace=wrap;html=1;" vertex="1" parent="1">
          <mxGeometry x="820" y="750" width="100" height="50" as="geometry" />
        </mxCell>
        <mxCell id="VjyPyf59B6PFOXmsA0LT-70" value="&#xa;last_name&#xa;&#xa;" style="ellipse;whiteSpace=wrap;html=1;" vertex="1" parent="1">
          <mxGeometry x="727" y="780" width="100" height="50" as="geometry" />
        </mxCell>
        <mxCell id="VjyPyf59B6PFOXmsA0LT-72" value="&#xa;genger&#xa;&#xa;" style="ellipse;whiteSpace=wrap;html=1;" vertex="1" parent="1">
          <mxGeometry x="627" y="760" width="100" height="50" as="geometry" />
        </mxCell>
        <mxCell id="VjyPyf59B6PFOXmsA0LT-74" value="&#xa;birth_date&#xa;&#xa;" style="ellipse;whiteSpace=wrap;html=1;" vertex="1" parent="1">
          <mxGeometry x="580" y="700" width="100" height="50" as="geometry" />
        </mxCell>
        <mxCell id="VjyPyf59B6PFOXmsA0LT-76" value="&#xa;phone_number&#xa;&#xa;" style="ellipse;whiteSpace=wrap;html=1;" vertex="1" parent="1">
          <mxGeometry x="570" y="630" width="100" height="50" as="geometry" />
        </mxCell>
        <mxCell id="VjyPyf59B6PFOXmsA0LT-78" value="&#xa;email&#xa;&#xa;" style="ellipse;whiteSpace=wrap;html=1;" vertex="1" parent="1">
          <mxGeometry x="590" y="560" width="100" height="50" as="geometry" />
        </mxCell>
        <mxCell id="VjyPyf59B6PFOXmsA0LT-80" value="discount" style="ellipse;whiteSpace=wrap;html=1;dashed=1;" vertex="1" parent="1">
          <mxGeometry x="670" y="510" width="100" height="50" as="geometry" />
        </mxCell>
        <mxCell id="VjyPyf59B6PFOXmsA0LT-82" value="&#xa;product_id&#xa;&#xa;" style="ellipse;whiteSpace=wrap;html=1;" vertex="1" parent="1">
          <mxGeometry x="260" y="500" width="100" height="50" as="geometry" />
        </mxCell>
        <mxCell id="VjyPyf59B6PFOXmsA0LT-84" value="&#xa;product_name&#xa;&#xa;" style="ellipse;whiteSpace=wrap;html=1;" vertex="1" parent="1">
          <mxGeometry x="170" y="535" width="100" height="50" as="geometry" />
        </mxCell>
        <mxCell id="VjyPyf59B6PFOXmsA0LT-86" value="&#xa;product_description&#xa;&#xa;" style="ellipse;whiteSpace=wrap;html=1;" vertex="1" parent="1">
          <mxGeometry x="130" y="590" width="100" height="50" as="geometry" />
        </mxCell>
        <mxCell id="VjyPyf59B6PFOXmsA0LT-89" value="&#xa;category&#xa;&#xa;" style="ellipse;whiteSpace=wrap;html=1;" vertex="1" parent="1">
          <mxGeometry x="140" y="650" width="100" height="50" as="geometry" />
        </mxCell>
        <mxCell id="VjyPyf59B6PFOXmsA0LT-91" value="&#xa;manufacture&#xa;&#xa;" style="ellipse;whiteSpace=wrap;html=1;" vertex="1" parent="1">
          <mxGeometry x="185" y="710" width="100" height="50" as="geometry" />
        </mxCell>
        <mxCell id="VjyPyf59B6PFOXmsA0LT-93" value="&#xa;product_type&#xa;&#xa;" style="ellipse;whiteSpace=wrap;html=1;" vertex="1" parent="1">
          <mxGeometry x="270" y="750" width="100" height="50" as="geometry" />
        </mxCell>
        <mxCell id="VjyPyf59B6PFOXmsA0LT-95" value="&#xa;amount&#xa;&#xa;" style="ellipse;whiteSpace=wrap;html=1;" vertex="1" parent="1">
          <mxGeometry x="370" y="770" width="100" height="50" as="geometry" />
        </mxCell>
        <mxCell id="VjyPyf59B6PFOXmsA0LT-97" value="&#xa;price&#xa;&#xa;" style="ellipse;whiteSpace=wrap;html=1;" vertex="1" parent="1">
          <mxGeometry x="480" y="760" width="100" height="50" as="geometry" />
        </mxCell>
        <mxCell id="VjyPyf59B6PFOXmsA0LT-99" value="&#xa;orders_id&#xa;&#xa;" style="ellipse;whiteSpace=wrap;html=1;" vertex="1" parent="1">
          <mxGeometry x="840" y="410" width="100" height="50" as="geometry" />
        </mxCell>
        <mxCell id="VjyPyf59B6PFOXmsA0LT-101" value="&#xa;employee_id&#xa;&#xa;" style="ellipse;whiteSpace=wrap;html=1;" vertex="1" parent="1">
          <mxGeometry x="870" y="350" width="100" height="50" as="geometry" />
        </mxCell>
        <mxCell id="VjyPyf59B6PFOXmsA0LT-103" value="&#xa;product_id&#xa;&#xa;" style="ellipse;whiteSpace=wrap;html=1;" vertex="1" parent="1">
          <mxGeometry x="890" y="290" width="100" height="50" as="geometry" />
        </mxCell>
        <mxCell id="VjyPyf59B6PFOXmsA0LT-105" value="&#xa;customer_id&#xa;&#xa;" style="ellipse;whiteSpace=wrap;html=1;" vertex="1" parent="1">
          <mxGeometry x="820" y="240" width="100" height="50" as="geometry" />
        </mxCell>
        <mxCell id="VjyPyf59B6PFOXmsA0LT-107" value="&#xa;transaction_type&#xa;&#xa;" style="ellipse;whiteSpace=wrap;html=1;" vertex="1" parent="1">
          <mxGeometry x="700" y="230" width="100" height="50" as="geometry" />
        </mxCell>
        <mxCell id="VjyPyf59B6PFOXmsA0LT-109" value="&#xa;transaction_moment&#xa;&#xa;" style="ellipse;whiteSpace=wrap;html=1;" vertex="1" parent="1">
          <mxGeometry x="590" y="230" width="100" height="50" as="geometry" />
        </mxCell>
        <mxCell id="VjyPyf59B6PFOXmsA0LT-111" value="&#xa;amount&#xa;&#xa;" style="ellipse;whiteSpace=wrap;html=1;" vertex="1" parent="1">
          <mxGeometry x="470" y="230" width="100" height="50" as="geometry" />
        </mxCell>
      </root>
    </mxGraphModel>
  </diagram>
</mxfile>
